<svg width="178" height="170" viewBox="0 0 178 170" fill="none" xmlns="http://www.w3.org/2000/svg">
    <g clip-path="url(#clip0_38_74)">
        <path d="M111.467 110.527C111.467 102.559 108.159 94.9186 102.272 89.2849C96.3839 83.6513 88.3983 80.4863 80.0718 80.4863C71.7452 80.4863 63.7597 83.6513 57.8719 89.2849C51.9841 94.9186 48.6764 102.559 48.6764 110.527C48.6764 113.339 49.8438 116.035 51.9219 118.024C53.9999 120.012 56.8183 121.129 59.7571 121.129C62.6959 121.129 65.5143 120.012 67.5924 118.024C69.6704 116.035 70.8378 113.339 70.8378 110.527C70.8378 108.183 71.8107 105.936 73.5424 104.279C75.2741 102.622 77.6228 101.691 80.0718 101.691C82.5208 101.691 84.8695 102.622 86.6012 104.279C88.3329 105.936 89.3057 108.183 89.3057 110.527C89.3057 114.944 80.5002 121.263 73.4233 126.338C61.8255 134.665 48.6764 144.101 48.6764 159.121C48.6764 161.933 49.8438 164.63 51.9219 166.618C53.9999 168.607 56.8183 169.724 59.7571 169.724H100.386C103.325 169.724 106.144 168.607 108.222 166.618C110.3 164.63 111.467 161.933 111.467 159.121C111.467 156.309 110.3 153.612 108.222 151.624C106.144 149.636 103.325 148.519 100.386 148.519H79.7024C81.9924 146.723 84.4671 144.985 86.7571 143.309C98.318 134.983 111.467 125.547 111.467 110.527Z" fill="#A93F55"/>
        <path d="M166.871 77.8359C163.932 77.8359 161.114 78.953 159.036 80.9413C156.957 82.9297 155.79 85.6264 155.79 88.4384V120.246H150.25C147.802 120.242 145.455 119.31 143.725 117.654C141.994 115.998 141.02 113.753 141.016 111.41V88.4384C141.016 85.6264 139.848 82.9297 137.77 80.9413C135.692 78.953 132.874 77.8359 129.935 77.8359C126.996 77.8359 124.178 78.953 122.1 80.9413C120.022 82.9297 118.854 85.6264 118.854 88.4384V111.41C118.864 119.375 122.175 127.01 128.061 132.642C133.946 138.273 141.926 141.441 150.25 141.451H155.79V159.121C155.79 161.933 156.957 164.63 159.036 166.618C161.114 168.607 163.932 169.724 166.871 169.724C169.81 169.724 172.628 168.607 174.706 166.618C176.784 164.63 177.952 161.933 177.952 159.121V88.4384C177.952 85.6264 176.784 82.9297 174.706 80.9413C172.628 78.953 169.81 77.8359 166.871 77.8359Z" fill="#A93F55"/>
        <path d="M165.341 19.2184L155.568 28.5697C141.077 12.9638 121.079 3.01969 99.4034 0.64066C77.7277 -1.73837 55.8963 3.61483 38.088 15.6756C20.2796 27.7364 7.74528 45.6576 2.88403 66.009C-1.97722 86.3604 1.17613 107.712 11.7405 125.978C12.4463 127.196 13.3958 128.269 14.5349 129.135C15.674 130.002 16.9803 130.646 18.3793 131.029C19.7783 131.413 21.2426 131.529 22.6886 131.371C24.1345 131.213 25.5338 130.785 26.8066 130.109C28.0794 129.434 29.2007 128.526 30.1065 127.436C31.0123 126.346 31.6848 125.096 32.0858 123.757C32.4867 122.419 32.6082 121.017 32.4432 119.634C32.2783 118.25 31.8301 116.911 31.1244 115.694C23.1386 101.908 20.7909 85.7754 24.5369 70.427C28.2829 55.0785 37.8555 41.6093 51.3964 32.6341C64.9372 23.6588 81.4803 19.8179 97.8144 21.8567C114.148 23.8956 129.108 31.6689 139.789 43.6676L131.464 51.6336C130.431 52.6221 129.728 53.8814 129.443 55.2523C129.158 56.6233 129.304 58.0442 129.863 59.3356C130.422 60.627 131.369 61.7308 132.583 62.5075C133.798 63.2842 135.226 63.6989 136.687 63.6992H170.564C172.523 63.6992 174.402 62.9545 175.788 61.6289C177.173 60.3034 177.951 58.5055 177.951 56.6309V24.2157C177.951 22.8179 177.518 21.4516 176.706 20.2895C175.894 19.1274 174.741 18.2217 173.391 17.6868C172.041 17.152 170.556 17.012 169.123 17.2846C167.691 17.5572 166.375 18.2302 165.341 19.2184Z" fill="#A93F55"/>
    </g>
    <defs>
        <clipPath id="clip0_38_74">
            <rect width="177.292" height="169.639" fill="white" transform="translate(0.659912 0.0844727)"/>
        </clipPath>
    </defs>
</svg>
