<svg width="188" height="176" viewBox="0 0 188 176" fill="none" xmlns="http://www.w3.org/2000/svg">
    <path d="M14.8084 175.647C11.0661 175.647 7.79161 174.268 4.98492 171.511C2.17822 168.753 0.774872 165.535 0.774872 161.858V49.4742C0.774872 45.797 2.17822 42.5795 4.98492 39.8216C7.79161 37.0637 11.0661 35.6848 14.8084 35.6848H59.2477V14.7709C59.2477 11.0937 60.6511 7.87615 63.4578 5.11827C66.2645 2.36039 69.5389 0.981445 73.2812 0.981445H115.382C119.124 0.981445 122.398 2.36039 125.205 5.11827C128.012 7.87615 129.415 11.0937 129.415 14.7709V35.6848H173.854C177.597 35.6848 180.871 37.0637 183.678 39.8216C186.485 42.5795 187.888 45.797 187.888 49.4742V161.858C187.888 165.535 186.485 168.753 183.678 171.511C180.871 174.268 177.597 175.647 173.854 175.647H14.8084ZM73.2812 35.6848H115.382V14.7709H73.2812V35.6848ZM173.854 117.962H115.616V131.751H73.5151V117.962H14.8084V161.858H173.854V117.962ZM87.5486 117.962H101.582V104.172H87.5486V117.962ZM14.8084 104.172H73.5151V90.3828H115.616V104.172H173.854V49.4742H14.8084V104.172Z" fill="#A93F55"/>
</svg>
