<svg width="47" height="48" viewBox="0 0 47 48" fill="none" xmlns="http://www.w3.org/2000/svg">
    <path d="M23.5 4.60599C29.7745 4.60599 30.5187 4.62949 32.996 4.74307C35.5575 4.86057 38.1953 5.44415 40.0616 7.31045C41.9455 9.19436 42.5115 11.8068 42.629 14.3761C42.7426 16.8534 42.7661 17.5976 42.7661 23.8721C42.7661 30.1466 42.7426 30.8907 42.629 33.368C42.5135 35.9158 41.9162 38.5792 40.0616 40.4337C38.1777 42.3176 35.5673 42.8836 32.996 43.0011C30.5187 43.1147 29.7745 43.1382 23.5 43.1382C17.2255 43.1382 16.4813 43.1147 14.004 43.0011C11.4758 42.8855 8.77725 42.2745 6.93837 40.4337C5.06425 38.5596 4.4885 35.9217 4.371 33.368C4.25742 30.8907 4.23392 30.1466 4.23392 23.8721C4.23392 17.5976 4.25742 16.8534 4.371 14.3761C4.48654 11.8381 5.08971 9.15911 6.93837 7.31045C8.81837 5.43045 11.4406 4.86057 14.004 4.74307C16.4813 4.62949 17.2255 4.60599 23.5 4.60599ZM23.5 0.37207C17.1178 0.37207 16.3168 0.399487 13.8102 0.51307C10.1775 0.679529 6.57021 1.69003 3.94408 4.31615C1.30817 6.95207 0.307458 10.5515 0.141 14.1822C0.0274167 16.6889 0 17.4899 0 23.8721C0 30.2543 0.0274167 31.0552 0.141 33.5619C0.307458 37.1907 1.32187 40.8077 3.94408 43.428C6.57804 46.0619 10.1833 47.0646 13.8102 47.2311C16.3168 47.3447 17.1178 47.3721 23.5 47.3721C29.8822 47.3721 30.6832 47.3447 33.1898 47.2311C36.8206 47.0646 40.4318 46.0522 43.0559 43.428C45.6938 40.7901 46.6925 37.1927 46.859 33.5619C46.9726 31.0552 47 30.2543 47 23.8721C47 17.4899 46.9726 16.6889 46.859 14.1822C46.6925 10.5495 45.6801 6.94032 43.0559 4.31615C40.4259 1.68611 36.8108 0.67757 33.1898 0.51307C30.6832 0.399487 29.8822 0.37207 23.5 0.37207Z" fill="#D1D1D1"/>
    <path d="M23.5 11.8047C16.8358 11.8047 11.4327 17.2077 11.4327 23.8719C11.4327 30.5361 16.8358 35.9392 23.5 35.9392C30.1642 35.9392 35.5672 30.5361 35.5672 23.8719C35.5672 17.2077 30.1642 11.8047 23.5 11.8047ZM23.5 31.7053C19.174 31.7053 15.6667 28.1979 15.6667 23.8719C15.6667 19.546 19.174 16.0386 23.5 16.0386C27.8259 16.0386 31.3333 19.546 31.3333 23.8719C31.3333 28.1979 27.8259 31.7053 23.5 31.7053Z" fill="#D1D1D1"/>
    <path d="M36.0451 14.1468C37.6025 14.1468 38.8651 12.8843 38.8651 11.3268C38.8651 9.76939 37.6025 8.50684 36.0451 8.50684C34.4877 8.50684 33.2251 9.76939 33.2251 11.3268C33.2251 12.8843 34.4877 14.1468 36.0451 14.1468Z" fill="#D1D1D1"/>
</svg>
