<svg width="47" height="48" viewBox="0 0 47 48" fill="none" xmlns="http://www.w3.org/2000/svg">
    <path fill-rule="evenodd" clip-rule="evenodd" d="M23.5 0.37207C10.5221 0.37207 0 10.8942 0 23.8721C0 36.8499 10.5221 47.3721 23.5 47.3721C36.4779 47.3721 47 36.8499 47 23.8721C47 10.8942 36.4779 0.37207 23.5 0.37207ZM34.3923 16.354C34.0398 20.069 32.5083 29.0871 31.7309 33.2486C31.4019 35.0111 30.7517 35.6005 30.125 35.6573C28.7601 35.7827 27.7241 34.7545 26.4023 33.8889C24.3343 32.5338 23.1651 31.6897 21.1578 30.3659C18.8372 28.8364 20.3412 27.9963 21.6631 26.6235C22.0097 26.2632 28.0218 20.7936 28.1393 20.2981C28.153 20.2354 28.1687 20.0044 28.0296 19.8829C27.8906 19.7615 27.6889 19.8027 27.544 19.8359C27.3364 19.8829 24.0327 22.0665 17.6309 26.3866C16.6928 27.0309 15.8429 27.3442 15.0811 27.3285C14.243 27.3109 12.6293 26.8546 11.4288 26.4629C9.95813 25.9851 8.78704 25.7305 8.88888 24.9198C8.94175 24.4968 9.52338 24.064 10.6357 23.6214C17.486 20.6369 22.0548 18.6688 24.3401 17.717C30.8673 15.0028 32.2224 14.5308 33.1076 14.5152C34.216 14.4995 34.4823 15.414 34.3923 16.354Z" fill="#D1D1D1"/>
</svg>
