<svg width="219" height="170" viewBox="0 0 219 170" fill="none" xmlns="http://www.w3.org/2000/svg">
    <path d="M17.363 169.774C12.5704 169.774 8.48023 168.083 5.0924 164.702C1.70457 161.321 0.0106506 157.239 0.0106506 152.456C0.0106506 147.673 1.70457 143.592 5.0924 140.21C8.48023 136.829 12.5704 135.139 17.363 135.139C18.1893 135.139 19.0156 135.18 19.8419 135.263C20.6682 135.345 21.7424 135.551 23.0644 135.881L72.6425 86.4031C72.3119 85.0836 72.1054 84.0116 72.0227 83.187C71.9401 82.3624 71.8988 81.5377 71.8988 80.7131C71.8988 75.9302 73.5927 71.8483 76.9805 68.4673C80.3684 65.0863 84.4586 63.3958 89.2511 63.3958C94.0437 63.3958 98.1338 65.0863 101.522 68.4673C104.91 71.8483 106.603 75.9302 106.603 80.7131C106.603 81.0429 106.356 82.9396 105.86 86.4031L133.128 113.616C134.45 113.286 135.524 113.08 136.35 112.998C137.177 112.915 138.003 112.874 138.829 112.874C139.655 112.874 140.482 112.915 141.308 112.998C142.134 113.08 143.209 113.286 144.531 113.616L184.193 74.0335C183.863 72.7141 183.656 71.6421 183.573 70.8175C183.491 69.9928 183.449 69.1682 183.449 68.3436C183.449 63.5607 185.143 59.4787 188.531 56.0977C191.919 52.7167 196.009 51.0262 200.802 51.0262C205.594 51.0262 209.684 52.7167 213.072 56.0977C216.46 59.4787 218.154 63.5607 218.154 68.3436C218.154 73.1264 216.46 77.2084 213.072 80.5894C209.684 83.9704 205.594 85.6609 200.802 85.6609C199.975 85.6609 199.149 85.6197 198.323 85.5372C197.496 85.4547 196.422 85.2486 195.1 84.9187L155.438 124.501C155.768 125.821 155.975 126.893 156.057 127.717C156.14 128.542 156.181 129.367 156.181 130.191C156.181 134.974 154.488 139.056 151.1 142.437C147.712 145.818 143.622 147.509 138.829 147.509C134.037 147.509 129.946 145.818 126.559 142.437C123.171 139.056 121.477 134.974 121.477 130.191C121.477 129.367 121.518 128.542 121.601 127.717C121.683 126.893 121.89 125.821 122.22 124.501L94.9526 97.2883C93.6305 97.6181 92.5563 97.8243 91.73 97.9067C90.9037 97.9892 90.0774 98.0304 89.2511 98.0304C88.9206 98.0304 87.0201 97.783 83.5496 97.2883L33.9716 146.766C34.3021 148.086 34.5087 149.158 34.5913 149.982C34.674 150.807 34.7153 151.632 34.7153 152.456C34.7153 157.239 33.0214 161.321 29.6335 164.702C26.2457 168.083 22.1555 169.774 17.363 169.774ZM29.7575 60.4271L24.7997 49.5419L13.8925 44.5941L24.7997 39.6463L29.7575 28.7611L34.7153 39.6463L45.6224 44.5941L34.7153 49.5419L29.7575 60.4271ZM138.829 47.8102L131.145 31.4824L114.784 23.8133L131.145 16.1442L138.829 -0.183594L146.514 16.1442L162.874 23.8133L146.514 31.4824L138.829 47.8102Z" fill="#A93F55"/>
</svg>
