<svg width="194" height="40" viewBox="0 0 194 40" fill="none" xmlns="http://www.w3.org/2000/svg">
    <path d="M9.89279 36.1258L12.5131 24.798L3.72498 17.1789L15.335 16.1711L19.85 5.48828L24.365 16.1711L35.975 17.1789L27.1868 24.798L29.8072 36.1258L19.85 30.1192L9.89279 36.1258Z" fill="#FFA500"/>
    <path d="M48.5928 36.1258L51.2131 24.798L42.425 17.1789L54.035 16.1711L58.55 5.48828L63.065 16.1711L74.675 17.1789L65.8869 24.798L68.5072 36.1258L58.55 30.1192L48.5928 36.1258Z" fill="#FFA500"/>
    <path d="M87.2928 36.1258L89.9131 24.798L81.125 17.1789L92.735 16.1711L97.25 5.48828L101.765 16.1711L113.375 17.1789L104.587 24.798L107.207 36.1258L97.25 30.1192L87.2928 36.1258Z" fill="#FFA500"/>
    <path d="M125.993 36.1258L128.613 24.798L119.825 17.1789L131.435 16.1711L135.95 5.48828L140.465 16.1711L152.075 17.1789L143.287 24.798L145.907 36.1258L135.95 30.1192L125.993 36.1258Z" fill="#FFA500"/>
    <path d="M164.693 36.1258L167.313 24.798L158.525 17.1789L170.135 16.1711L174.65 5.48828L179.165 16.1711L190.775 17.1789L181.987 24.798L184.607 36.1258L174.65 30.1192L164.693 36.1258Z" fill="#FFA500"/>
</svg>
