<svg width="194" height="39" viewBox="0 0 194 39" fill="none" xmlns="http://www.w3.org/2000/svg">
    <path d="M9.89279 35.6258L12.5131 24.298L3.72498 16.6789L15.335 15.6711L19.85 4.98828L24.365 15.6711L35.975 16.6789L27.1868 24.298L29.8072 35.6258L19.85 29.6192L9.89279 35.6258Z" fill="#FFA500"/>
    <path d="M48.5928 35.6258L51.2131 24.298L42.425 16.6789L54.035 15.6711L58.55 4.98828L63.065 15.6711L74.675 16.6789L65.8869 24.298L68.5072 35.6258L58.55 29.6192L48.5928 35.6258Z" fill="#FFA500"/>
    <path d="M87.2928 35.6258L89.9131 24.298L81.125 16.6789L92.735 15.6711L97.25 4.98828L101.765 15.6711L113.375 16.6789L104.587 24.298L107.207 35.6258L97.25 29.6192L87.2928 35.6258Z" fill="#FFA500"/>
    <path d="M125.993 35.6258L128.613 24.298L119.825 16.6789L131.435 15.6711L135.95 4.98828L140.465 15.6711L152.075 16.6789L143.287 24.298L145.907 35.6258L135.95 29.6192L125.993 35.6258Z" fill="#FFA500"/>
    <path d="M164.693 35.6258L167.313 24.298L158.525 16.6789L170.135 15.6711L174.65 4.98828L179.165 15.6711L190.775 16.6789L181.987 24.298L184.607 35.6258L174.65 29.6192L164.693 35.6258Z" fill="black"/>
</svg>
