<svg width="198" height="176" viewBox="0 0 198 176" fill="none" xmlns="http://www.w3.org/2000/svg">
    <path d="M15.5669 139.9V162.292H183.407V139.9H15.5669ZM15.5669 37.6333H46.4199C45.5972 36.2481 44.939 34.5168 44.4454 32.4391C43.9517 30.3615 43.7049 28.4762 43.7049 26.7833C43.7049 19.55 46.4199 13.394 51.8501 8.31531C57.2802 3.23661 63.7799 0.697266 71.3492 0.697266C76.4502 0.697266 81.1399 1.88999 85.4182 4.27544C89.6965 6.66089 93.0698 9.70041 95.538 13.394L99.734 19.3961L103.683 13.394C106.316 9.54651 109.689 6.46851 113.803 4.16001C117.917 1.85152 122.36 0.697266 127.132 0.697266C135.03 0.697266 141.694 3.19814 147.124 8.19989C152.554 13.2016 155.27 19.3961 155.27 26.7833C155.27 28.4762 155.064 30.1691 154.652 31.862C154.241 33.5549 153.624 35.4787 152.801 37.6333H183.407C187.357 37.6333 190.812 39.0183 193.774 41.7885C196.736 44.5587 198.217 47.7906 198.217 51.4842V162.292C198.217 165.986 196.736 169.218 193.774 171.988C190.812 174.758 187.357 176.143 183.407 176.143H15.5669C11.6177 176.143 8.16216 174.758 5.20027 171.988C2.23838 169.218 0.757431 165.986 0.757431 162.292V51.4842C0.757431 47.7906 2.23838 44.5587 5.20027 41.7885C8.16216 39.0183 11.6177 37.6333 15.5669 37.6333ZM15.5669 115.199H183.407V51.4842H121.948L146.631 83.5724L134.783 91.883L99.4872 46.1747L64.1913 91.883L52.3437 83.5724L77.0262 51.4842H15.5669V115.199ZM71.596 39.0184C75.2161 39.0184 78.3014 37.8256 80.852 35.4402C83.4025 33.0547 84.6777 30.1691 84.6777 26.7833C84.6777 23.3975 83.4025 20.5119 80.852 18.1264C78.3014 15.741 75.2161 14.5483 71.596 14.5483C67.9759 14.5483 64.8906 15.741 62.3401 18.1264C59.7896 20.5119 58.5143 23.3975 58.5143 26.7833C58.5143 30.1691 59.7896 33.0547 62.3401 35.4402C64.8906 37.8256 67.9759 39.0184 71.596 39.0184ZM127.132 39.0184C130.916 39.0184 134.084 37.8256 136.634 35.4402C139.185 33.0547 140.46 30.1691 140.46 26.7833C140.46 23.3975 139.185 20.5119 136.634 18.1264C134.084 15.741 130.916 14.5483 127.132 14.5483C123.676 14.5483 120.673 15.741 118.122 18.1264C115.572 20.5119 114.297 23.3975 114.297 26.7833C114.297 30.1691 115.572 33.0547 118.122 35.4402C120.673 37.8256 123.676 39.0184 127.132 39.0184Z" fill="#A93F55"/>
</svg>
