<svg width="244" height="177" viewBox="0 0 244 177" fill="none" xmlns="http://www.w3.org/2000/svg">
    <path d="M-6.10352e-05 176.445V149.885C-6.10352e-05 143.293 1.65394 137.312 4.96194 131.943C8.26995 126.575 12.8644 122.572 18.7453 119.935C32.1611 113.907 44.2445 109.575 54.9955 106.938C65.7465 104.301 76.8191 102.982 88.2133 102.982C99.6076 102.982 110.634 104.301 121.293 106.938C131.952 109.575 143.99 113.907 157.406 119.935C163.287 122.572 167.927 126.575 171.327 131.943C174.727 137.312 176.427 143.293 176.427 149.885V176.445H-6.10352e-05ZM192.967 176.445V149.885C192.967 138.018 190.026 128.27 184.145 120.641C178.265 113.013 170.546 106.844 160.989 102.134C173.67 103.641 185.616 105.855 196.826 108.774C208.037 111.694 217.134 115.038 224.117 118.805C230.182 122.384 234.96 126.811 238.452 132.085C241.944 137.359 243.689 143.293 243.689 149.885V176.445H192.967ZM88.2133 85.7465C76.084 85.7465 66.16 81.7908 58.4413 73.8794C50.7226 65.968 46.8633 55.7962 46.8633 43.364C46.8633 30.9318 50.7226 20.76 58.4413 12.8486C66.16 4.93715 76.084 0.981445 88.2133 0.981445C100.343 0.981445 110.267 4.93715 117.985 12.8486C125.704 20.76 129.563 30.9318 129.563 43.364C129.563 55.7962 125.704 65.968 117.985 73.8794C110.267 81.7908 100.343 85.7465 88.2133 85.7465ZM187.453 43.364C187.453 55.7962 183.594 65.968 175.875 73.8794C168.157 81.7908 158.233 85.7465 146.103 85.7465C144.082 85.7465 141.831 85.6052 139.35 85.3227C136.869 85.0401 134.617 84.5221 132.596 83.7687C137.006 79.0595 140.36 73.2672 142.658 66.3918C144.955 59.5164 146.103 51.8405 146.103 43.364C146.103 34.8875 144.955 27.3999 142.658 20.9012C140.36 14.4026 137.006 8.42194 132.596 2.9593C134.617 2.3942 136.869 1.92328 139.35 1.54655C141.831 1.16981 144.082 0.981445 146.103 0.981445C158.233 0.981445 168.157 4.93715 175.875 12.8486C183.594 20.76 187.453 30.9318 187.453 43.364ZM16.54 159.492H159.887V149.885C159.887 146.872 159.014 143.952 157.268 141.126C155.522 138.301 153.363 136.323 150.79 135.193C137.558 129.165 126.439 125.115 117.434 123.043C108.429 120.971 98.6887 119.935 88.2133 119.935C77.738 119.935 67.9518 120.971 58.8548 123.043C49.7578 125.115 38.5933 129.165 25.3613 135.193C22.7884 136.323 20.675 138.301 19.021 141.126C17.367 143.952 16.54 146.872 16.54 149.885V159.492ZM88.2133 68.7935C95.3807 68.7935 101.308 66.3918 105.994 61.5885C110.68 56.7851 113.023 50.7103 113.023 43.364C113.023 36.0177 110.68 29.9429 105.994 25.1395C101.308 20.3361 95.3807 17.9345 88.2133 17.9345C81.046 17.9345 75.1192 20.3361 70.4328 25.1395C65.7465 29.9429 63.4033 36.0177 63.4033 43.364C63.4033 50.7103 65.7465 56.7851 70.4328 61.5885C75.1192 66.3918 81.046 68.7935 88.2133 68.7935Z" fill="#A93F55"/>
</svg>
