<svg width="55" height="55" viewBox="0 0 55 55" fill="none" xmlns="http://www.w3.org/2000/svg">
    <rect width="55" height="55" rx="15" fill="#F26A8D"/>
    <path d="M44.4583 27.0991C44.2674 22.4776 42.5677 18.5627 39.3594 15.3543C36.151 12.146 32.2361 10.4463 27.6146 10.2554V6.81787C30.3646 6.89426 32.9523 7.47673 35.3776 8.56527C37.803 9.65381 39.9323 11.1147 41.7656 12.9481C43.599 14.7814 45.0599 16.9108 46.1484 19.3361C47.237 21.7614 47.8194 24.3491 47.8958 27.0991H44.4583ZM34.776 27.0991C34.5851 25.1894 33.8212 23.5757 32.4844 22.258C31.1476 20.9403 29.5243 20.1859 27.6146 19.995V16.5575C30.4792 16.7484 32.9141 17.837 34.9193 19.8231C36.9245 21.8092 38.0226 24.2345 38.2135 27.0991H34.776ZM45.5469 48.1252C40.8872 48.1252 36.2561 46.9793 31.6536 44.6877C27.0512 42.396 22.9167 39.4168 19.25 35.7502C15.5833 32.0835 12.6042 27.9489 10.3125 23.3465C8.02083 18.7441 6.875 14.113 6.875 9.45329C6.875 8.72759 7.12326 8.11648 7.61979 7.61995C8.11632 7.12343 8.72743 6.87516 9.45312 6.87516H17.474C18.0087 6.87516 18.4766 7.05659 18.8776 7.41943C19.2786 7.78228 19.5365 8.26926 19.651 8.88037L21.1979 16.0991C21.2743 16.6338 21.2648 17.1208 21.1693 17.5601C21.0738 17.9993 20.8733 18.3717 20.5677 18.6772L14.8385 24.4637C16.9774 28.0158 19.3741 31.1095 22.0286 33.745C24.6832 36.3804 27.691 38.6147 31.0521 40.4481L36.4948 34.8335C36.8767 34.4134 37.316 34.1173 37.8125 33.9455C38.309 33.7736 38.8056 33.745 39.3021 33.8595L46.1198 35.3491C46.6927 35.4637 47.1701 35.7502 47.5521 36.2085C47.934 36.6668 48.125 37.2016 48.125 37.8127V45.547C48.125 46.2727 47.8767 46.8838 47.3802 47.3804C46.8837 47.8769 46.2726 48.1252 45.5469 48.1252ZM13.1198 21.3127L17.7604 16.6147L16.4427 10.3127H10.3125C10.3125 11.8022 10.5417 13.4351 11 15.2111C11.4583 16.9871 12.1649 19.021 13.1198 21.3127ZM34.2604 42.1095C35.8264 42.8352 37.526 43.4272 39.3594 43.8856C41.1927 44.3439 42.9688 44.6113 44.6875 44.6877V38.5575L38.7865 37.3543L34.2604 42.1095Z" fill="#F5F5F5"/>
</svg>
